<?xml version="1.0" standalone="no"?>
<!DOCTYPE svg PUBLIC "-//W3C//DTD SVG 20010904//EN"
 "http://www.w3.org/TR/2001/REC-SVG-20010904/DTD/svg10.dtd">
<svg version="1.0" xmlns="http://www.w3.org/2000/svg"
 width="300.000000pt" height="300.000000pt" viewBox="0 0 300.000000 300.000000"
 preserveAspectRatio="xMidYMid meet">
<metadata>
Created by potrace 1.12, written by Peter Selinger 2001-2015
</metadata>
<g transform="translate(0.000000,300.000000) scale(0.100000,-0.100000)"
fill="#000000" stroke="none">
<path d="M1440 2733 c-104 -54 -106 -194 -3 -244 33 -16 43 -26 38 -38 -4 -9
-44 -124 -90 -256 -46 -132 -88 -253 -94 -268 l-11 -28 -58 48 c-31 26 -134
115 -229 196 l-172 148 25 37 c77 112 -65 254 -183 182 -46 -28 -66 -64 -65
-116 1 -83 61 -137 147 -132 l50 3 17 -95 c50 -284 108 -616 108 -622 0 -5
261 -8 580 -8 l579 0 6 33 c4 17 32 180 64 361 l57 329 54 1 c65 1 106 25 126
73 42 99 -30 201 -134 190 -101 -11 -154 -132 -91 -211 l19 -25 -117 -99 c-65
-55 -167 -143 -228 -195 -60 -52 -113 -92 -116 -89 -12 13 -201 553 -196 558
3 3 20 13 39 22 43 22 78 76 78 121 0 100 -112 169 -200 124z"/>
<path d="M1705 851 c-45 -20 -92 -70 -101 -107 -4 -14 -4 -50 -2 -81 4 -50 9
-60 45 -94 33 -30 63 -45 155 -73 124 -39 148 -56 148 -103 0 -90 -146 -108
-266 -31 l-48 30 -28 -33 c-15 -19 -28 -38 -28 -44 0 -15 60 -53 121 -77 76
-30 198 -30 255 0 47 24 91 72 100 108 4 14 4 50 2 80 -8 89 -61 132 -218 175
-51 13 -93 31 -107 45 -44 44 -21 114 43 130 39 10 118 -2 163 -25 22 -12 45
-21 50 -21 5 0 19 16 32 36 22 36 22 37 4 50 -72 53 -241 71 -320 35z"/>
<path d="M970 540 l0 -320 55 0 55 0 0 93 0 93 48 47 48 47 104 -139 105 -140
64 0 c49 -1 61 2 54 12 -48 59 -243 337 -243 344 0 5 54 70 121 144 l120 134
-63 3 c-63 3 -63 3 -103 -40 -21 -24 -88 -95 -147 -158 l-108 -115 0 158 0
157 -55 0 -55 0 0 -320z"/>
</g>
</svg>
